<?xml version="1.0" encoding="UTF-8" standalone="no"?>
<svg
   xmlns:dc="http://purl.org/dc/elements/1.1/"
   xmlns:cc="http://creativecommons.org/ns#"
   xmlns:rdf="http://www.w3.org/1999/02/22-rdf-syntax-ns#"
   xmlns:svg="http://www.w3.org/2000/svg"
   xmlns="http://www.w3.org/2000/svg"
   xmlns:sodipodi="http://sodipodi.sourceforge.net/DTD/sodipodi-0.dtd"
   xmlns:inkscape="http://www.inkscape.org/namespaces/inkscape"
   version="1.1"
   x="0px"
   y="0px"
   viewBox="0 0 100 100"
   enable-background="new 0 0 100 100"
   xml:space="preserve"
   id="svg2"
   inkscape:version="0.91 r13725"
   sodipodi:docname="noun_37514_cc.svg"
   width="100"
   height="100"><metadata
     id="metadata36"><rdf:RDF><cc:Work
         rdf:about=""><dc:format>image/svg+xml</dc:format><dc:type
           rdf:resource="http://purl.org/dc/dcmitype/StillImage" /><dc:title></dc:title></cc:Work></rdf:RDF></metadata><defs
     id="defs34" /><sodipodi:namedview
     pagecolor="#ffffff"
     bordercolor="#666666"
     borderopacity="1"
     objecttolerance="10"
     gridtolerance="10"
     guidetolerance="10"
     inkscape:pageopacity="0"
     inkscape:pageshadow="2"
     inkscape:window-width="1855"
     inkscape:window-height="1056"
     id="namedview32"
     showgrid="false"
     fit-margin-top="0"
     fit-margin-left="0"
     fit-margin-right="0"
     fit-margin-bottom="0"
     inkscape:zoom="6.821875"
     inkscape:cx="28.5"
     inkscape:cy="44.528981"
     inkscape:window-x="65"
     inkscape:window-y="24"
     inkscape:window-maximized="1"
     inkscape:current-layer="svg2" /><g
     id="g4"
     transform="translate(0,-0.301997)"><rect
       x="36.900002"
       y="63.500999"
       width="3.8"
       height="3.799"
       id="rect6" /><path
       d="m 75.2,83.101 -2.3,0 0,-2.301 c 0,-1.771 -1.129,-3.055 -2.801,-3.268 l 0,-1.832 2.301,0 c 1.943,0 3.3,-1.356 3.3,-3.3 l 0,-42 c 0,-1.943 -1.356,-3.3 -3.3,-3.3 l -2.3,0 0,-2.3 C 70.1,13.718 61.083,4.7 50,4.7 38.917,4.7 29.9,13.718 29.9,24.801 l 0,2.3 -2.3,0 c -1.943,0 -3.3,1.356 -3.3,3.3 l 0,42 c 0,1.943 1.357,3.3 3.3,3.3 l 2.3,0 0,1.832 c -1.672,0.213 -2.8,1.496 -2.8,3.268 l 0,2.301 -2.3,0 c -1.943,0 -3.3,1.356 -3.3,3.3 l 0,5.601 c 0,1.942 1.357,3.299 3.3,3.299 l 11.2,0 c 1.943,0 3.3,-1.356 3.3,-3.299 l 0,-13.5 21.4,0 0,13.5 c 0,1.942 1.356,3.299 3.3,3.299 l 11.2,0 c 1.942,0 3.3,-1.356 3.3,-3.299 l 0,-5.603 c 0,-1.943 -1.357,-3.299 -3.3,-3.299 z m -0.5,3.799 0,4.601 -1.8,0 0,-4.601 1.8,0 z m -14,-14 0,1.8 -21.4,0 0,-1.8 21.4,0 z m -27,4.601 0,-4.601 1.8,0 0,4.601 -1.8,0 z m 1.8,3.799 0,10.201 -4.6,0 0,-10.201 4.6,0 z m -5.6,-14 0,4.6 -1.8,0 0,-4.6 1.8,0 z m -1.8,-20.6 0,-15.8 1.8,0 0,15.8 -1.8,0 z m 0,16.801 0,-13 1.8,0 0,13 -1.8,0 z M 53.7,19.7 l 0,4.601 -7.4,0 0,-4.601 7.4,0 z M 50,8.5 c 1.216,0 2.471,0.228 3.7,0.471 l 0,6.93 -7.4,0 0,-6.938 C 47.438,8.718 48.658,8.5 50,8.5 Z m -7.5,1.836 0,13.965 -1.8,0 0,-5.601 -3.8,0 0,5.601 -3.192,0 C 33.889,18.38 37.276,13.015 42.5,10.336 Z m 26.6,70.964 0,10.201 -4.6,0 0,-10.201 4.6,0 z m -4.6,-3.799 0,-4.601 1.8,0 0,4.601 -1.8,0 z m -7,-53.2 0,-13.957 c 5.223,2.734 8.609,8.096 8.792,13.957 l -8.792,0 z m 8.8,3.8 0,41 -32.6,0 0,-41 32.6,0 z m 3.8,43.799 0,-4.6 1.8,0 0,4.6 -1.8,0 z m 0,-8.399 0,-13 1.8,0 0,13 -1.8,0 z m 0,-16.801 0,-15.8 1.8,0 0,15.8 -1.8,0 z m -43,40.2 0,4.601 -1.8,0 0,-4.601 1.8,0 z"
       id="path8"
       inkscape:connector-curvature="0" /><path
       d="m 45.3,67.3 9.4,0 0,-9.4 -9.4,0 0,9.4 z m 5.6,-5.6 0,1.801 -1.8,0 0,-1.801 1.8,0 z"
       id="path10"
       inkscape:connector-curvature="0" /><path
       d="m 50,14.101 c 1.119,0 1.9,-0.781 1.9,-1.9 0,-1.118 -0.781,-1.899 -1.9,-1.899 -1.119,0 -1.9,0.781 -1.9,1.899 0,1.118 0.781,1.9 1.9,1.9 z"
       id="path12"
       inkscape:connector-curvature="0" /><path
       d="m 59.301,20.601 c 0,1.118 0.781,1.899 1.899,1.899 1.118,0 1.899,-0.781 1.899,-1.899 0,-1.119 -0.781,-1.9 -1.899,-1.9 -1.118,0 -1.899,0.78 -1.899,1.9 z"
       id="path14"
       inkscape:connector-curvature="0" /><path
       d="m 54.2,56.101 c 1.942,0 3.3,-1.357 3.3,-3.301 l 0,-8.4 c 0,-1.943 -1.357,-3.3 -3.3,-3.3 l -8.4,0 c -1.943,0 -3.3,1.356 -3.3,3.3 l 0,8.4 c 0,1.943 1.357,3.301 3.3,3.301 l 8.4,0 z m -7,-5.6 5.601,0 c 0.562,0 0.899,0.336 0.899,0.899 0,0.563 -0.337,0.9 -0.899,0.9 l -5.601,0 c -0.563,0 -0.9,-0.336 -0.9,-0.899 0,-0.563 0.337,-0.9 0.9,-0.9 z m 5.601,-3.801 -5.601,0 c -0.563,0 -0.9,-0.337 -0.9,-0.9 0,-0.563 0.336,-0.899 0.9,-0.899 l 5.601,0 c 0.562,0 0.899,0.336 0.899,0.899 0,0.563 -0.337,0.9 -0.899,0.9 z"
       id="path16"
       inkscape:connector-curvature="0" /><rect
       x="38.299999"
       y="29.9"
       width="23.4"
       height="3.8"
       id="rect18" /><path
       d="m 56.5,61.2 0,2.801 c 0,1.942 1.357,3.299 3.301,3.299 1.942,0 3.299,-1.356 3.299,-3.299 l 0,-2.801 c 0,-1.943 -1.356,-3.3 -3.299,-3.3 -1.944,0 -3.301,1.357 -3.301,3.3 z"
       id="path20"
       inkscape:connector-curvature="0" /><rect
       x="38.299999"
       y="35.500999"
       width="23.4"
       height="3.8"
       id="rect22" /><rect
       x="36.900002"
       y="57.900002"
       width="3.8"
       height="3.8"
       id="rect24" /><rect
       x="36.900002"
       y="49.500999"
       width="3.8"
       height="6.5999999"
       id="rect26" /></g></svg>