<?xml version="1.0" encoding="iso-8859-1"?>
<!-- Generator: Adobe Illustrator 19.0.0, SVG Export Plug-In . SVG Version: 6.00 Build 0)  -->
<svg version="1.1" id="Layer_1" xmlns="http://www.w3.org/2000/svg" xmlns:xlink="http://www.w3.org/1999/xlink" x="0px" y="0px"
	 viewBox="0 0 501.352 501.352" style="enable-background:new 0 0 501.352 501.352;" xml:space="preserve">
<g>
	<g>
		<path d="M394.57,319.583c0-1.173-0.96-3.52-0.96-3.52s0-0.427,0-0.533l-30.933-72V10.996c0-5.333-3.84-10.133-9.067-10.88
			c-6.613-0.96-12.267,4.16-12.267,10.56v10.667H160.01V10.996c0-5.333-3.84-10.133-9.067-10.88
			c-6.613-0.96-12.267,4.16-12.267,10.56v232.747l-30.933,72.213v0.213v0.213c-0.747,1.173-0.96,2.347-0.96,3.52
			c0,0.213-0.107,0.427-0.107,0.427v170.347c0,5.333,3.84,10.133,9.067,10.88c6.613,0.96,12.267-4.16,12.267-10.56V373.343h21.333
			v63.68c0,5.333,3.84,10.133,9.067,10.88c6.613,0.96,12.267-4.16,12.267-10.56v-64h160v63.68c0,5.333,3.84,10.133,9.067,10.88
			c6.613,0.96,12.267-4.16,12.267-10.56v-64h21.333v117.013c0,5.333,3.84,10.133,9.067,10.88c6.613,0.96,12.267-4.16,12.267-10.56
			V320.01C394.676,319.796,394.57,319.69,394.57,319.583z M160.01,42.676h181.333v53.333H160.01V42.676z M160.01,117.343h181.333
			v53.333H160.01V117.343z M160.01,192.01h181.333v42.667H160.01V192.01z M156.276,256.01h188.587l22.827,53.333H133.45
			L156.276,256.01z M373.343,352.01H128.01v-21.333h245.333V352.01z"/>
	</g>
</g>
<g>
</g>
<g>
</g>
<g>
</g>
<g>
</g>
<g>
</g>
<g>
</g>
<g>
</g>
<g>
</g>
<g>
</g>
<g>
</g>
<g>
</g>
<g>
</g>
<g>
</g>
<g>
</g>
<g>
</g>
</svg>
